<?xml version="1.0" standalone="no"?><!DOCTYPE svg PUBLIC "-//W3C//DTD SVG 1.1//EN" "http://www.w3.org/Graphics/SVG/1.1/DTD/svg11.dtd"><svg t="1764664577893" class="icon" viewBox="0 0 1024 1024" version="1.1" xmlns="http://www.w3.org/2000/svg" p-id="10771" xmlns:xlink="http://www.w3.org/1999/xlink" width="256" height="256"><path d="M921.6 430.08V217.6a51.2 51.2 0 0 0-51.2-51.2H153.6a51.2 51.2 0 0 0-51.2 51.2V430.08a81.92 81.92 0 1 1 0 163.84v212.48a51.2 51.2 0 0 0 51.2 51.2h716.8a51.2 51.2 0 0 0 51.2-51.2V593.92a81.92 81.92 0 1 1 0-163.84z m-51.2 204.8v171.52H153.6V634.88c48.0768-20.1216 81.92-67.584 81.92-122.88S201.6768 409.1904 153.6 389.12V217.6h716.8V389.12c-48.0768 20.1216-81.92 67.6352-81.92 122.88s33.8432 102.7584 81.92 122.88z" p-id="10772"></path><path d="M645.12 391.2704H378.88a25.6 25.6 0 0 0 0 51.2h266.24a25.6 25.6 0 0 0 0-51.2zM645.12 581.5296H378.88a25.6 25.6 0 0 0 0 51.2h266.24a25.6 25.6 0 0 0 0-51.2z" p-id="10773"></path></svg>