<?xml version="1.0" standalone="no"?><!DOCTYPE svg PUBLIC "-//W3C//DTD SVG 1.1//EN" "http://www.w3.org/Graphics/SVG/1.1/DTD/svg11.dtd"><svg t="1764641601778" class="icon" viewBox="0 0 1024 1024" version="1.1" xmlns="http://www.w3.org/2000/svg" p-id="12988" xmlns:xlink="http://www.w3.org/1999/xlink" width="200" height="200"><path d="M377.799984 849.66658a69.17 69.17 0 1 0 97.819445-97.822859 69.17 69.17 0 1 0-97.819445 97.822859Z" p-id="12989" fill="#2c2c2c"></path><path d="M637.178742 849.669581a69.17 69.17 0 1 0 97.819445-97.82286 69.17 69.17 0 1 0-97.819445 97.82286Z" p-id="12990" fill="#2c2c2c"></path><path d="M718.96 570.27l100-199.97c5.79-11.79 5.2-25.36-1.59-36.28-6.81-10.92-18.71-17.44-31.85-17.44H352.95l-9.09-28.54c-7.45-23.54-30.79-40.63-55.49-40.63h-86.46v69.17h78.46l108.14 339.8c7.45 23.54 30.78 40.63 55.49 40.63h311.26v-69.17H452.01L441 593.26h240.77c15.47 0 30.47-9.32 37.19-22.99z" p-id="12991" fill="#2c2c2c"></path></svg>